# xmcd
#
# Track frame offsets:
# 150
# 18749
# 31704
# 47755
# 64496
# 78891
# 97461
# 110062
# 128265
# 143185
# 153364
#
# Disc length: 2201 seconds
#
#
# Revision: 0
# Processed by: cddbd v1.5.1PL2 Copyright (c) Steve Scherf et al.
# Submitted via: FreeRIP 2.944 
#
DISCID=9208970b
DTITLE=Cheryl K. Warner - Most Requested
DYEAR=2003
DGENRE=Country
TTITLE0=Ain't It Just Like You
TTITLE1=It's OK Kids
TTITLE2=Nashville
TTITLE3=In My Dreams
TTITLE4=Your Heart's In The Right Place
TTITLE5=Dancin' Round And Round
TTITLE6=Let's Go Back
TTITLE7=Where Do I Go From You
TTITLE8=That GTO
TTITLE9=Visions
TTITLE10=Counterfeit Country Queen
EXTD=
EXTT0=
EXTT1=
EXTT2=
EXTT3=
EXTT4=
EXTT5=
EXTT6=
EXTT7=
EXTT8=
EXTT9=
EXTT10=
PLAYORDER=
